# xmcd
#
# Track frame offsets: 
#        150
#        12139
#        20090
#        47727
#        56545
#        64008
#        69031
#        89275
#        92869
#        120201
#        137650
#        142945
#        162043
#        165739
#        173747
#        176958
#        179905
#        181715
#        192729
#        207466
#        240407
#        257488
#
# Disc length: 3632 seconds
#
# Revision: 0
# Processed by: cddbd v1.5.2PL0 Copyright (c) Steve Scherf et al.
# Submitted via: ExactAudioCopy v0.95b3
#
DISCID=2c0e2e16
DTITLE=Jimi Hendrix  - Straight Ahead Spotlights the Year 1969
DYEAR=1900
DGENRE=
TTITLE0=Intro
TTITLE1=Sunshine of Your Love
TTITLE2=Killing Floor
TTITLE3=Interview
TTITLE4=Room Full of Mirrors
TTITLE5=Interview
TTITLE6=Crash Landing
TTITLE7=Interview
TTITLE8=Foxy Lady
TTITLE9=End Of Part 1
TTITLE10=intro - Woodstock spot
TTITLE11=Star Spangled Banner
TTITLE12=excerpt from Dick Cavett
TTITLE13=Dance on a Desert
TTITLE14=Interview
TTITLE15=Paper Airplanes
TTITLE16=Interview
TTITLE17=I'm A Man - Stepping Stone
TTITLE18=Room Full of Mirrors
TTITLE19=Xmas Medley
TTITLE20=Who Knows
TTITLE21=Outro
EXTD=
EXTT0=
EXTT1=
EXTT2=
EXTT3=
EXTT4=
EXTT5=
EXTT6=
EXTT7=
EXTT8=
EXTT9=
EXTT10=
EXTT11=
EXTT12=
EXTT13=
EXTT14=
EXTT15=
EXTT16=
EXTT17=
EXTT18=
EXTT19=
EXTT20=
EXTT21=
PLAYORDER=
